<?xml version="1.0" encoding="utf-8"?>
<!-- Generator: Adobe Illustrator 21.1.0, SVG Export Plug-In . SVG Version: 6.00 Build 0)  -->
<svg version="1.1" id="Capa_1" xmlns="http://www.w3.org/2000/svg" xmlns:xlink="http://www.w3.org/1999/xlink" x="0px" y="0px"
	 viewBox="0 0 100 80" style="enable-background:new 0 0 100 80;" xml:space="preserve">
<style type="text/css">
	.st0{fill:#B3B6B7;}
</style>
<path class="st0" d="M85.5,45h-70c-2.8,0-5-2.2-5-5s2.2-5,5-5h70c2.8,0,5,2.2,5,5S88.3,45,85.5,45z M85.5,25h-70c-2.8,0-5-2.2-5-5
	s2.2-5,5-5h70c2.8,0,5,2.2,5,5S88.3,25,85.5,25z M15.5,55h70c2.8,0,5,2.2,5,5s-2.2,5-5,5h-70c-2.8,0-5-2.2-5-5S12.7,55,15.5,55z"/>
</svg>
